<?xml version="1.0" standalone="no"?><svg xmlns="http://www.w3.org/2000/svg" viewBox="0 0 1440 320"><path fill="#000000" fill-opacity="1" d="M0,192L20,192C40,192,80,192,120,176C160,160,200,128,240,101.3C280,75,320,53,360,64C400,75,440,117,480,133.3C520,149,560,139,600,154.7C640,171,680,213,720,208C760,203,800,149,840,133.3C880,117,920,139,960,170.7C1000,203,1040,245,1080,261.3C1120,277,1160,267,1200,245.3C1240,224,1280,192,1320,160C1360,128,1400,96,1420,80L1440,64L1440,320L1420,320C1400,320,1360,320,1320,320C1280,320,1240,320,1200,320C1160,320,1120,320,1080,320C1040,320,1000,320,960,320C920,320,880,320,840,320C800,320,760,320,720,320C680,320,640,320,600,320C560,320,520,320,480,320C440,320,400,320,360,320C320,320,280,320,240,320C200,320,160,320,120,320C80,320,40,320,20,320L0,320Z"></path></svg>