<?xml version="1.0" standalone="no"?><svg xmlns="http://www.w3.org/2000/svg" viewBox="0 0 1440 320"><path fill="#000000" fill-opacity="1" d="M0,192L20,192C40,192,80,192,120,176C160,160,200,128,240,101.3C280,75,320,53,360,64C400,75,440,117,480,133.3C520,149,560,139,600,154.7C640,171,680,213,720,208C760,203,800,149,840,133.3C880,117,920,139,960,170.7C1000,203,1040,245,1080,261.3C1120,277,1160,267,1200,245.3C1240,224,1280,192,1320,160C1360,128,1400,96,1420,80L1440,64L1440,0L1420,0C1400,0,1360,0,1320,0C1280,0,1240,0,1200,0C1160,0,1120,0,1080,0C1040,0,1000,0,960,0C920,0,880,0,840,0C800,0,760,0,720,0C680,0,640,0,600,0C560,0,520,0,480,0C440,0,400,0,360,0C320,0,280,0,240,0C200,0,160,0,120,0C80,0,40,0,20,0L0,0Z"></path></svg>